<mxfile host="app.diagrams.net" agent="Mozilla/5.0 (Windows NT 10.0; Win64; x64) AppleWebKit/537.36 (KHTML, like Gecko) Chrome/133.0.0.0 Safari/537.36 Edg/133.0.0.0" version="26.1.0">
  <diagram name="PÃ¡gina-1" id="rVmtYNaHVED3_YQ0Slt4">
    <mxGraphModel dx="1077" dy="1088" grid="1" gridSize="10" guides="1" tooltips="1" connect="1" arrows="1" fold="1" page="1" pageScale="1" pageWidth="827" pageHeight="1169" math="0" shadow="0">
      <root>
        <mxCell id="0" />
        <mxCell id="1" parent="0" />
        <mxCell id="MOljG6Bjp6qCJ44M1euP-1" value="" style="rounded=0;whiteSpace=wrap;html=1;" vertex="1" parent="1">
          <mxGeometry width="820" height="60" as="geometry" />
        </mxCell>
        <mxCell id="MOljG6Bjp6qCJ44M1euP-2" value="" style="rounded=0;whiteSpace=wrap;html=1;" vertex="1" parent="1">
          <mxGeometry y="70" width="820" height="110" as="geometry" />
        </mxCell>
        <mxCell id="MOljG6Bjp6qCJ44M1euP-3" value="" style="rounded=0;whiteSpace=wrap;html=1;" vertex="1" parent="1">
          <mxGeometry x="40" y="220" width="220" height="240" as="geometry" />
        </mxCell>
        <mxCell id="MOljG6Bjp6qCJ44M1euP-10" value="" style="rounded=0;whiteSpace=wrap;html=1;" vertex="1" parent="1">
          <mxGeometry x="310" y="490" width="220" height="240" as="geometry" />
        </mxCell>
        <mxCell id="MOljG6Bjp6qCJ44M1euP-11" value="" style="rounded=0;whiteSpace=wrap;html=1;" vertex="1" parent="1">
          <mxGeometry x="310" y="220" width="220" height="240" as="geometry" />
        </mxCell>
        <mxCell id="MOljG6Bjp6qCJ44M1euP-12" value="" style="rounded=0;whiteSpace=wrap;html=1;" vertex="1" parent="1">
          <mxGeometry x="570" y="220" width="220" height="240" as="geometry" />
        </mxCell>
        <mxCell id="MOljG6Bjp6qCJ44M1euP-13" value="IMAGEN" style="rounded=1;whiteSpace=wrap;html=1;" vertex="1" parent="1">
          <mxGeometry x="50" y="270" width="200" height="150" as="geometry" />
        </mxCell>
        <mxCell id="MOljG6Bjp6qCJ44M1euP-14" value="IMAGEN" style="rounded=1;whiteSpace=wrap;html=1;" vertex="1" parent="1">
          <mxGeometry x="580" y="265" width="200" height="150" as="geometry" />
        </mxCell>
        <mxCell id="MOljG6Bjp6qCJ44M1euP-15" value="IMAGEN" style="rounded=1;whiteSpace=wrap;html=1;" vertex="1" parent="1">
          <mxGeometry x="320" y="535" width="200" height="150" as="geometry" />
        </mxCell>
        <mxCell id="MOljG6Bjp6qCJ44M1euP-16" value="IMAGEN" style="rounded=1;whiteSpace=wrap;html=1;" vertex="1" parent="1">
          <mxGeometry x="320" y="265" width="200" height="150" as="geometry" />
        </mxCell>
        <mxCell id="MOljG6Bjp6qCJ44M1euP-17" value="TEXTO" style="whiteSpace=wrap;html=1;" vertex="1" parent="1">
          <mxGeometry x="365" y="500" width="110" height="30" as="geometry" />
        </mxCell>
        <mxCell id="MOljG6Bjp6qCJ44M1euP-18" value="TEXTO" style="whiteSpace=wrap;html=1;" vertex="1" parent="1">
          <mxGeometry x="620" y="230" width="110" height="30" as="geometry" />
        </mxCell>
        <mxCell id="MOljG6Bjp6qCJ44M1euP-19" value="TEXTO" style="whiteSpace=wrap;html=1;" vertex="1" parent="1">
          <mxGeometry x="370" y="230" width="110" height="30" as="geometry" />
        </mxCell>
        <mxCell id="MOljG6Bjp6qCJ44M1euP-20" value="TEXTO" style="whiteSpace=wrap;html=1;" vertex="1" parent="1">
          <mxGeometry x="95" y="230" width="110" height="30" as="geometry" />
        </mxCell>
        <mxCell id="MOljG6Bjp6qCJ44M1euP-23" value="Text" style="text;html=1;align=center;verticalAlign=middle;resizable=0;points=[];autosize=1;strokeColor=none;fillColor=none;" vertex="1" parent="1">
          <mxGeometry x="110" y="430" width="50" height="30" as="geometry" />
        </mxCell>
        <mxCell id="MOljG6Bjp6qCJ44M1euP-24" value="Text" style="text;html=1;align=center;verticalAlign=middle;resizable=0;points=[];autosize=1;strokeColor=none;fillColor=none;" vertex="1" parent="1">
          <mxGeometry x="385" y="430" width="50" height="30" as="geometry" />
        </mxCell>
        <mxCell id="MOljG6Bjp6qCJ44M1euP-25" value="Text" style="text;html=1;align=center;verticalAlign=middle;resizable=0;points=[];autosize=1;strokeColor=none;fillColor=none;" vertex="1" parent="1">
          <mxGeometry x="655" y="430" width="50" height="30" as="geometry" />
        </mxCell>
        <mxCell id="MOljG6Bjp6qCJ44M1euP-26" value="Text" style="text;html=1;align=center;verticalAlign=middle;resizable=0;points=[];autosize=1;strokeColor=none;fillColor=none;" vertex="1" parent="1">
          <mxGeometry x="389" y="700" width="50" height="30" as="geometry" />
        </mxCell>
        <mxCell id="MOljG6Bjp6qCJ44M1euP-27" value="" style="whiteSpace=wrap;html=1;" vertex="1" parent="1">
          <mxGeometry y="760" width="820" height="70" as="geometry" />
        </mxCell>
        <mxCell id="MOljG6Bjp6qCJ44M1euP-28" value="Text" style="text;html=1;align=center;verticalAlign=middle;resizable=0;points=[];autosize=1;strokeColor=none;fillColor=none;" vertex="1" parent="1">
          <mxGeometry x="380" y="790" width="50" height="30" as="geometry" />
        </mxCell>
        <mxCell id="MOljG6Bjp6qCJ44M1euP-29" value="" style="whiteSpace=wrap;html=1;" vertex="1" parent="1">
          <mxGeometry y="830" width="820" height="220" as="geometry" />
        </mxCell>
        <mxCell id="MOljG6Bjp6qCJ44M1euP-30" value="CONTACTOS" style="text;html=1;align=center;verticalAlign=middle;resizable=0;points=[];autosize=1;strokeColor=none;fillColor=none;" vertex="1" parent="1">
          <mxGeometry x="355" y="910" width="100" height="30" as="geometry" />
        </mxCell>
        <mxCell id="MOljG6Bjp6qCJ44M1euP-31" value="FOOTER" style="whiteSpace=wrap;html=1;" vertex="1" parent="1">
          <mxGeometry y="1050" width="820" height="70" as="geometry" />
        </mxCell>
        <mxCell id="MOljG6Bjp6qCJ44M1euP-32" value="TEXTO" style="whiteSpace=wrap;html=1;" vertex="1" parent="1">
          <mxGeometry x="355" y="140" width="110" height="30" as="geometry" />
        </mxCell>
        <mxCell id="MOljG6Bjp6qCJ44M1euP-33" value="TEXTO" style="whiteSpace=wrap;html=1;" vertex="1" parent="1">
          <mxGeometry x="230" y="110" width="360" height="20" as="geometry" />
        </mxCell>
        <mxCell id="MOljG6Bjp6qCJ44M1euP-34" value="TEXTO" style="whiteSpace=wrap;html=1;" vertex="1" parent="1">
          <mxGeometry x="291" y="80" width="245" height="20" as="geometry" />
        </mxCell>
        <mxCell id="MOljG6Bjp6qCJ44M1euP-35" value="TEXTO" style="whiteSpace=wrap;html=1;" vertex="1" parent="1">
          <mxGeometry x="20" y="15" width="110" height="30" as="geometry" />
        </mxCell>
        <mxCell id="MOljG6Bjp6qCJ44M1euP-36" value="TEXTO" style="whiteSpace=wrap;html=1;" vertex="1" parent="1">
          <mxGeometry x="340" y="15" width="110" height="30" as="geometry" />
        </mxCell>
        <mxCell id="MOljG6Bjp6qCJ44M1euP-37" value="TEXTO" style="whiteSpace=wrap;html=1;" vertex="1" parent="1">
          <mxGeometry x="460" y="15" width="110" height="30" as="geometry" />
        </mxCell>
        <mxCell id="MOljG6Bjp6qCJ44M1euP-38" value="TEXTO" style="whiteSpace=wrap;html=1;" vertex="1" parent="1">
          <mxGeometry x="580" y="15" width="110" height="30" as="geometry" />
        </mxCell>
        <mxCell id="MOljG6Bjp6qCJ44M1euP-39" value="TEXTO" style="whiteSpace=wrap;html=1;" vertex="1" parent="1">
          <mxGeometry x="700" y="15" width="110" height="30" as="geometry" />
        </mxCell>
        <mxCell id="MOljG6Bjp6qCJ44M1euP-40" style="edgeStyle=orthogonalEdgeStyle;rounded=0;orthogonalLoop=1;jettySize=auto;html=1;exitX=0.5;exitY=1;exitDx=0;exitDy=0;" edge="1" parent="1" source="MOljG6Bjp6qCJ44M1euP-37" target="MOljG6Bjp6qCJ44M1euP-37">
          <mxGeometry relative="1" as="geometry" />
        </mxCell>
        <mxCell id="MOljG6Bjp6qCJ44M1euP-44" value="TEXTO" style="whiteSpace=wrap;html=1;" vertex="1" parent="1">
          <mxGeometry x="359" y="190" width="110" height="20" as="geometry" />
        </mxCell>
      </root>
    </mxGraphModel>
  </diagram>
</mxfile>
